<svg width="160" height="160" viewBox="0 0 160 160" fill="none" xmlns="http://www.w3.org/2000/svg">
<path d="M80 154C120.869 154 154 120.869 154 80C154 39.1309 120.869 6 80 6C39.1309 6 6 39.1309 6 80C6 120.869 39.1309 154 80 154Z" fill="url(#paint0_linear_1_2)"/>
<path opacity="0.2" d="M80 148C117.555 148 148 117.555 148 80C148 42.4446 117.555 12 80 12C42.4446 12 12 42.4446 12 80C12 117.555 42.4446 148 80 148Z" stroke="white" stroke-width="1.5"/>
<path d="M53 58C53 40 62 31 80 31C98 31 107 40 107 58" stroke="#4E342E" stroke-width="7" stroke-linecap="round"/>
<path d="M86.5 26H73.5C70.4624 26 68 28.4624 68 31.5C68 34.5376 70.4624 37 73.5 37H86.5C89.5376 37 92 34.5376 92 31.5C92 28.4624 89.5376 26 86.5 26Z" fill="#4E342E"/>
<path d="M41 65L48 104C48 106.667 49.6667 108 53 108H107C110.333 108 112 106.667 112 104L119 65H41Z" fill="url(#paint1_linear_1_2)"/>
<path d="M116 60H44C40.6863 60 38 62.6863 38 66C38 69.3137 40.6863 72 44 72H116C119.314 72 122 69.3137 122 66C122 62.6863 119.314 60 116 60Z" fill="#4E342E"/>
<path opacity="0.55" d="M55 72L52 108" stroke="#4A2C10" stroke-width="2.5"/>
<path opacity="0.55" d="M75 72L74 108" stroke="#4A2C10" stroke-width="2.5"/>
<path opacity="0.55" d="M85 72L86 108" stroke="#4A2C10" stroke-width="2.5"/>
<path opacity="0.55" d="M105 72L108 108" stroke="#4A2C10" stroke-width="2.5"/>
<path opacity="0.45" d="M44 80L116 80" stroke="#4A2C10" stroke-width="2"/>
<path opacity="0.45" d="M46 90L114 90" stroke="#4A2C10" stroke-width="2"/>
<path opacity="0.45" d="M48 100L112 100" stroke="#4A2C10" stroke-width="2"/>
<path d="M52.6109 124.664L55.8029 127.304C56.2029 127.64 56.4509 127.896 56.5469 128.072C56.6589 128.248 56.7149 128.416 56.7149 128.576C56.7149 128.96 56.4669 129.48 55.9709 130.136C55.4269 130.808 54.9469 131.144 54.5309 131.144C54.1789 131.144 53.6909 130.912 53.0669 130.448L52.8269 130.28C52.4589 129.976 51.8909 129.448 51.1229 128.696C50.3549 127.928 49.7709 127.384 49.3709 127.064V128.912C49.3709 129.28 49.3549 129.56 49.3229 129.752C49.3069 129.928 49.2349 130.136 49.1069 130.376C48.8989 130.792 48.2829 131 47.2589 131C46.2509 131 45.6349 130.784 45.4109 130.352C45.2989 130.112 45.2269 129.904 45.1949 129.728C45.1789 129.536 45.1709 129.256 45.1709 128.888V114.512C45.1709 114.144 45.1789 113.872 45.1949 113.696C45.2269 113.504 45.2989 113.288 45.4109 113.048C45.6349 112.616 46.2589 112.4 47.2829 112.4C48.0509 112.4 48.5949 112.536 48.9149 112.808C49.1869 113.032 49.3309 113.384 49.3469 113.864C49.3629 114.008 49.3709 114.232 49.3709 114.536V122.144C49.6589 121.904 50.0909 121.496 50.6669 120.92C51.2589 120.344 51.6989 119.936 51.9869 119.696L52.2749 119.504C52.8349 119.072 53.3149 118.856 53.7149 118.856C54.1149 118.856 54.5709 119.184 55.0829 119.84C55.6109 120.48 55.8749 120.984 55.8749 121.352C55.8749 121.72 55.5789 122.152 54.9869 122.648L52.6109 124.664ZM56.9516 124.688C56.9516 122.768 57.6236 121.184 58.9676 119.936C60.3116 118.688 61.8476 118.064 63.5756 118.064C65.3036 118.064 66.8316 118.688 68.1596 119.936C69.4876 121.168 70.1516 122.744 70.1516 124.664C70.1516 125.992 69.8076 127.176 69.1196 128.216C68.4316 129.24 67.5916 130 66.5996 130.496C65.6236 130.976 64.6076 131.216 63.5516 131.216C62.4956 131.216 61.4716 130.96 60.4796 130.448C59.4876 129.92 58.6476 129.152 57.9596 128.144C57.2876 127.12 56.9516 125.968 56.9516 124.688ZM61.9676 126.416C62.4796 126.8 62.9996 126.992 63.5276 126.992C64.0556 126.992 64.5836 126.792 65.1116 126.392C65.6396 125.992 65.9036 125.4 65.9036 124.616C65.9036 123.832 65.6556 123.248 65.1596 122.864C64.6636 122.48 64.1276 122.288 63.5516 122.288C62.9756 122.288 62.4396 122.488 61.9436 122.888C61.4476 123.288 61.1996 123.88 61.1996 124.664C61.1996 125.432 61.4556 126.016 61.9676 126.416ZM83.8942 123.176C83.8942 124.152 83.6462 124.88 83.1502 125.36C82.6702 125.824 82.1342 126.056 81.5422 126.056H75.8542C75.8542 126.504 76.1182 126.88 76.6462 127.184C77.1742 127.488 77.7022 127.64 78.2302 127.64C79.1582 127.64 79.8862 127.544 80.4142 127.352L80.6782 127.256C81.0622 127.08 81.3822 126.992 81.6382 126.992C82.1502 126.992 82.5902 127.352 82.9582 128.072C83.1662 128.504 83.2702 128.872 83.2702 129.176C83.2702 130.6 81.5662 131.312 78.1582 131.312C76.9742 131.312 75.9182 131.112 74.9902 130.712C74.0782 130.296 73.3662 129.752 72.8542 129.08C71.8462 127.784 71.3422 126.336 71.3422 124.736C71.3422 122.72 71.9902 121.112 73.2862 119.912C74.5982 118.696 76.2302 118.088 78.1822 118.088C80.4062 118.088 82.0382 118.872 83.0782 120.44C83.6222 121.272 83.8942 122.184 83.8942 123.176ZM78.8302 123.872C79.4382 123.872 79.7422 123.616 79.7422 123.104C79.7422 122.736 79.5982 122.44 79.3102 122.216C79.0382 121.992 78.6382 121.88 78.1102 121.88C77.5982 121.88 77.0862 122.096 76.5742 122.528C76.0622 122.944 75.8062 123.392 75.8062 123.872H78.8302ZM94.052 118.496C94.356 118.592 94.604 118.76 94.796 119C95.004 119.224 95.108 119.592 95.108 120.104C95.108 120.616 94.956 121.176 94.652 121.784C94.348 122.392 93.908 122.696 93.332 122.696C93.044 122.696 92.764 122.632 92.492 122.504C92.236 122.376 91.892 122.312 91.46 122.312C91.028 122.312 90.62 122.464 90.236 122.768C89.868 123.072 89.684 123.44 89.684 123.872V128.912C89.684 129.28 89.668 129.56 89.636 129.752C89.62 129.928 89.548 130.136 89.42 130.376C89.18 130.792 88.556 131 87.548 131C86.78 131 86.228 130.864 85.892 130.592C85.636 130.368 85.492 130.024 85.46 129.56C85.46 129.4 85.46 129.168 85.46 128.864V120.44C85.46 120.072 85.468 119.8 85.484 119.624C85.516 119.432 85.588 119.224 85.7 119C85.924 118.568 86.548 118.352 87.572 118.352C88.532 118.352 89.132 118.536 89.372 118.904C89.548 119.16 89.636 119.424 89.636 119.696C89.716 119.584 89.828 119.448 89.972 119.288C90.132 119.128 90.46 118.912 90.956 118.64C91.452 118.368 91.884 118.232 92.252 118.232C92.636 118.232 92.956 118.256 93.212 118.304C93.468 118.336 93.748 118.4 94.052 118.496ZM103.365 118.376C104.789 118.376 106.093 119.008 107.277 120.272C108.477 121.536 109.077 123.008 109.077 124.688C109.077 126.352 108.485 127.816 107.301 129.08C106.117 130.328 104.845 130.952 103.485 130.952C102.125 130.952 101.157 130.568 100.581 129.8C100.453 130.584 99.7648 130.976 98.5168 130.976C97.5088 130.976 96.8928 130.76 96.6688 130.328C96.5568 130.088 96.4848 129.88 96.4528 129.704C96.4368 129.512 96.4288 129.232 96.4288 128.864V114.536C96.4288 114.168 96.4368 113.896 96.4528 113.72C96.4848 113.528 96.5568 113.32 96.6688 113.096C96.8928 112.664 97.5168 112.448 98.5408 112.448C99.5488 112.448 100.157 112.664 100.365 113.096C100.493 113.336 100.565 113.552 100.581 113.744C100.613 113.92 100.629 114.192 100.629 114.56V119.552C101.269 118.768 102.181 118.376 103.365 118.376ZM101.253 126.128C101.653 126.56 102.149 126.776 102.741 126.776C103.333 126.776 103.837 126.56 104.253 126.128C104.669 125.696 104.877 125.216 104.877 124.688C104.877 124.16 104.685 123.68 104.301 123.248C103.917 122.8 103.405 122.576 102.765 122.576C102.125 122.576 101.613 122.8 101.229 123.248C100.861 123.696 100.677 124.184 100.677 124.712C100.677 125.224 100.869 125.696 101.253 126.128ZM110.632 120.464C110.632 120.096 110.64 119.824 110.656 119.648C110.688 119.456 110.76 119.24 110.872 119C111.096 118.584 111.72 118.376 112.744 118.376C113.512 118.376 114.056 118.512 114.376 118.784C114.648 119.008 114.792 119.352 114.808 119.816C114.824 119.976 114.832 120.208 114.832 120.512V128.912C114.832 129.28 114.816 129.56 114.784 129.752C114.768 129.928 114.696 130.136 114.568 130.376C114.36 130.792 113.744 131 112.72 131C111.712 131 111.096 130.784 110.872 130.352C110.76 130.112 110.688 129.904 110.656 129.728C110.64 129.552 110.632 129.272 110.632 128.888V120.464ZM114.568 116.024C114.456 116.248 114.248 116.408 113.944 116.504C113.64 116.6 113.232 116.648 112.72 116.648C112.224 116.648 111.824 116.6 111.52 116.504C111.216 116.408 111 116.24 110.872 116C110.76 115.76 110.688 115.552 110.656 115.376C110.64 115.184 110.632 114.904 110.632 114.536C110.632 114.168 110.64 113.896 110.656 113.72C110.688 113.528 110.76 113.32 110.872 113.096C111.096 112.664 111.72 112.448 112.744 112.448C113.752 112.448 114.36 112.664 114.568 113.096C114.696 113.336 114.768 113.552 114.784 113.744C114.816 113.92 114.832 114.192 114.832 114.56C114.832 114.928 114.816 115.208 114.784 115.4C114.768 115.576 114.696 115.784 114.568 116.024Z" fill="#9EEBA2"/>
<path opacity="0.35" d="M24.5 87C26.433 87 28 85.433 28 83.5C28 81.567 26.433 80 24.5 80C22.567 80 21 81.567 21 83.5C21 85.433 22.567 87 24.5 87Z" fill="white"/>
<path opacity="0.35" d="M137.5 87C139.433 87 141 85.433 141 83.5C141 81.567 139.433 80 137.5 80C135.567 80 134 81.567 134 83.5C134 85.433 135.567 87 137.5 87Z" fill="white"/>
<defs>
<linearGradient id="paint0_linear_1_2" x1="6" y1="6" x2="14806" y2="14806" gradientUnits="userSpaceOnUse">
<stop stop-color="#56C15A"/>
<stop offset="1" stop-color="#2E7D32"/>
</linearGradient>
<linearGradient id="paint1_linear_1_2" x1="41" y1="65" x2="41" y2="4365" gradientUnits="userSpaceOnUse">
<stop stop-color="#6D4C41"/>
<stop offset="1" stop-color="#4E342E"/>
</linearGradient>
</defs>
</svg>
